<svg width="512" height="512" fill="none" xmlns="http://www.w3.org/2000/svg"><path d="M452 40h-24V0h-40v40H124V0H84v40H60C26.916 40 0 66.916 0 100v352c0 33.084 26.916 60 60 60h392c33.084 0 60-26.916 60-60V100c0-33.084-26.916-60-60-60zm20 412c0 11.028-8.972 20-20 20H60c-11.028 0-20-8.972-20-20V188h432v264zm0-304H40v-48c0-11.028 8.972-20 20-20h24v40h40V80h264v40h40V80h24c11.028 0 20 8.972 20 20v48z" fill="#424242"/><path d="M116 230H76v40h40v-40zM196 230h-40v40h40v-40zM276 230h-40v40h40v-40zM356 230h-40v40h40v-40zM436 230h-40v40h40v-40zM116 310H76v40h40v-40zM196 310h-40v40h40v-40zM276 310h-40v40h40v-40zM356 310h-40v40h40v-40zM116 390H76v40h40v-40zM196 390h-40v40h40v-40zM276 390h-40v40h40v-40zM356 390h-40v40h40v-40zM436 310h-40v40h40v-40z" fill="#424242"/></svg>